<svg width="632" height="738" viewBox="0 0 632 738" fill="none" xmlns="http://www.w3.org/2000/svg">
<g filter="url(#filter0_f_225_40399)">
<path d="M132 356.5V169.5L631.5 144L132 356.5Z" fill="#DDD6FE"/>
</g>
<g filter="url(#filter1_f_225_40399)">
<path d="M132 251V438L631.5 463.5L132 251Z" fill="#DDD6FE"/>
</g>
<g style="mix-blend-mode:hard-light" filter="url(#filter2_f_225_40399)">
<path d="M355 193C257 208.2 204.5 148 190.5 116L107 266C210 226.667 403.8 195.1 355 383.5C306.2 571.9 418 647.333 480 661.5C434.833 601.167 364 461.1 442 383.5C539.5 286.5 477.5 174 355 193Z" fill="#BD23D6" fill-opacity="0.1"/>
</g>
<defs>
<filter id="filter0_f_225_40399" x="0" y="12" width="763.5" height="476.5" filterUnits="userSpaceOnUse" color-interpolation-filters="sRGB">
<feFlood flood-opacity="0" result="BackgroundImageFix"/>
<feBlend mode="normal" in="SourceGraphic" in2="BackgroundImageFix" result="shape"/>
<feGaussianBlur stdDeviation="66" result="effect1_foregroundBlur_225_40399"/>
</filter>
<filter id="filter1_f_225_40399" x="0" y="119" width="763.5" height="476.5" filterUnits="userSpaceOnUse" color-interpolation-filters="sRGB">
<feFlood flood-opacity="0" result="BackgroundImageFix"/>
<feBlend mode="normal" in="SourceGraphic" in2="BackgroundImageFix" result="shape"/>
<feGaussianBlur stdDeviation="66" result="effect1_foregroundBlur_225_40399"/>
</filter>
<filter id="filter2_f_225_40399" x="31" y="40" width="535.027" height="697.5" filterUnits="userSpaceOnUse" color-interpolation-filters="sRGB">
<feFlood flood-opacity="0" result="BackgroundImageFix"/>
<feBlend mode="normal" in="SourceGraphic" in2="BackgroundImageFix" result="shape"/>
<feGaussianBlur stdDeviation="38" result="effect1_foregroundBlur_225_40399"/>
</filter>
</defs>
</svg>
