<svg width="2004" height="547" viewBox="0 0 2004 547" fill="none" xmlns="http://www.w3.org/2000/svg">
<path d="M595.534 1.31494C866.511 1.31494 1137.49 1.31494 1408.47 1.31494C1606.21 182.897 1804.06 364.421 2002 545.888C1335.33 546.269 668.667 546.269 2 545.888C200.02 364.478 397.865 182.954 595.534 1.31494Z" stroke="#DDD6FE" stroke-width="0.862212" stroke-miterlimit="10"/>
<path d="M31.3613 518.979C354.67 523.183 678.542 516.377 1002 516.377C1325.46 516.377 1649.22 523.183 1972.64 518.979" stroke="#DDD6FE" stroke-width="0.862212" stroke-miterlimit="10"/>
<path d="M59.1055 493.586C373.316 499.305 687.677 481.376 1002 481.919C1316.32 482.462 1630.83 499.42 1944.9 493.586" stroke="#DDD6FE" stroke-width="0.862212" stroke-miterlimit="10"/>
<path d="M85.2705 469.653C391.323 475.172 695.872 442.487 1002 443.002C1308.13 443.517 1612.9 475.057 1918.73 469.653" stroke="#DDD6FE" stroke-width="0.862212" stroke-miterlimit="10"/>
<path d="M110.045 446.775C408.917 450.55 703.015 400.451 1002 400.451C1300.98 400.451 1595.05 450.607 1893.95 446.775" stroke="#DDD6FE" stroke-width="0.862212" stroke-miterlimit="10"/>
<path d="M133.467 425.33C426.249 426.33 709.106 357.187 1001.89 357.187C1294.67 357.187 1577.6 426.33 1870.31 425.33" stroke="#DDD6FE" stroke-width="0.862212" stroke-miterlimit="10"/>
<path d="M155.647 404.969C443.204 402.51 714.257 312.863 1002 312.863C1289.75 312.863 1560.76 402.51 1848.35 404.969" stroke="#DDD6FE" stroke-width="0.862212" stroke-miterlimit="10"/>
<path d="M176.812 385.639C459.744 379.577 718.579 269.484 1002 269.484C1285.42 269.484 1544.26 379.577 1827.19 385.639" stroke="#DDD6FE" stroke-width="0.862212" stroke-miterlimit="10"/>
<path d="M196.698 367.282C475.871 357.788 722.262 228.222 1002 228.222C1281.74 228.222 1528.32 357.788 1807.3 367.282" stroke="#DDD6FE" stroke-width="0.862212" stroke-miterlimit="10"/>
<path d="M215.759 349.78C491.473 337.541 725.458 189.645 1002 189.645C1278.54 189.645 1512.56 337.541 1788.24 349.78" stroke="#DDD6FE" stroke-width="0.862212" stroke-miterlimit="10"/>
<path d="M236.549 330.706C508.767 317.695 729.03 156.273 1002 156.273C1274.97 156.273 1495.46 317.752 1767.45 330.706" stroke="#DDD6FE" stroke-width="0.862212" stroke-miterlimit="10"/>
<path d="M261.211 308.088C528.542 292.017 733.203 112.208 1002 112.208C1270.8 112.208 1475.31 291.931 1742.6 308.031" stroke="#DDD6FE" stroke-width="0.862212" stroke-miterlimit="10"/>
<path d="M284.293 286.871C548.128 268.198 736.473 72.7761 1002 72.7761C1267.53 72.7761 1455.87 268.198 1719.71 286.871" stroke="#DDD6FE" stroke-width="0.862212" stroke-miterlimit="10"/>
<path d="M306.023 266.995C566.963 249.152 739.332 43.0923 1002 43.0923C1264.67 43.0923 1437.04 249.152 1697.98 266.995" stroke="#DDD6FE" stroke-width="0.862212" stroke-miterlimit="10"/>
<path d="M329.745 245.206C579.557 227.134 750.497 35.6582 1002 35.6582C1253.5 35.6582 1424.44 227.248 1674.26 245.206" stroke="#DDD6FE" stroke-width="0.862212" stroke-miterlimit="10"/>
<path d="M351.887 224.875C590.609 207.088 761.285 29.5388 1002 29.5388C1242.71 29.5388 1413.2 207.06 1652.11 224.875" stroke="#DDD6FE" stroke-width="0.862212" stroke-miterlimit="10"/>
<path d="M373.09 205.43C601.511 188.272 772.037 26.7935 1002 26.7935C1231.96 26.7935 1402.38 188.358 1630.91 205.43" stroke="#DDD6FE" stroke-width="0.862212" stroke-miterlimit="10"/>
<path d="M398.279 182.323C615.573 167.854 783.392 24.1616 1002 24.1616C1220.61 24.1616 1388.66 167.883 1605.72 182.323" stroke="#DDD6FE" stroke-width="0.862212" stroke-miterlimit="10"/>
<path d="M421.512 160.992C628.504 148.896 794.068 23.7332 1002 23.7332C1209.93 23.7332 1375.38 148.867 1582.49 160.992" stroke="#DDD6FE" stroke-width="0.862212" stroke-miterlimit="10"/>
<path d="M443.015 141.262C639.782 131.253 804.556 22.2757 1002 23.0192C1199.44 23.7627 1363.92 131.225 1560.98 141.262" stroke="#DDD6FE" stroke-width="0.862212" stroke-miterlimit="10"/>
<path d="M462.979 122.959C650.948 114.381 813.58 22.875 1002 22.875C1190.42 22.875 1353.13 114.381 1541.02 122.959" stroke="#DDD6FE" stroke-width="0.862212" stroke-miterlimit="10"/>
<path d="M485.873 101.942C663.881 94.9934 823.617 19.6156 1002 19.1866C1180.38 18.7577 1340.35 94.9934 1518.13 101.942" stroke="#DDD6FE" stroke-width="0.862212" stroke-miterlimit="10"/>
<path d="M508.992 80.7528C677.188 75.7485 833.504 16.8704 1002 16.8704C1170.5 16.8704 1326.77 75.7485 1495.01 80.7528" stroke="#DDD6FE" stroke-width="0.862212" stroke-miterlimit="10"/>
<path d="M530.195 61.3652C689.744 58.2483 842.225 15.7839 1002.08 15.6123C1161.92 15.4408 1314.41 58.2483 1473.95 61.3652" stroke="#DDD6FE" stroke-width="0.862212" stroke-miterlimit="10"/>
<path d="M551.963 41.348C702.978 39.9754 850.948 13.1814 1002 13.1814C1153.05 13.1814 1301.02 39.9754 1452.04 41.348" stroke="#DDD6FE" stroke-width="0.862212" stroke-miterlimit="10"/>
<path d="M574.857 20.302C717.451 20.445 859.369 8.86377 1002 8.86377C1144.63 8.86377 1286.55 20.5593 1429.14 20.302" stroke="#DDD6FE" stroke-width="0.862212" stroke-miterlimit="10"/>
<path d="M1377.19 1.34302C1558.69 183.211 1739.03 366.708 1924.93 545.916" stroke="#DDD6FE" stroke-width="0.862212" stroke-miterlimit="10"/>
<path d="M1345.98 1.34302C1425.23 86.1574 1510.68 167.54 1589.33 252.698C1678.39 349.093 1756.74 450.75 1848.17 545.945" stroke="#DDD6FE" stroke-width="0.862212" stroke-miterlimit="10"/>
<path d="M1314.67 1.31494C1385.53 81.0965 1466.92 155.731 1535.31 236.685C1620.08 337.055 1684.74 446.204 1771.21 545.945" stroke="#DDD6FE" stroke-width="0.862212" stroke-miterlimit="10"/>
<path d="M1283.39 1.28564C1346.02 74.3758 1422.49 141.232 1480.76 216.438C1562.45 321.985 1613.28 439.769 1694.29 545.945" stroke="#DDD6FE" stroke-width="0.862212" stroke-miterlimit="10"/>
<path d="M1252 1.22949C1303.43 68.4004 1377.86 124.533 1426.25 192.991C1505.2 304.657 1542.26 432.25 1617.26 545.946" stroke="#DDD6FE" stroke-width="0.862212" stroke-miterlimit="10"/>
<path d="M1220.87 1.19897C1264.11 60.0486 1335.61 106.259 1375.01 166.71C1451.51 284.352 1473.58 424.47 1540.42 545.915" stroke="#DDD6FE" stroke-width="0.862212" stroke-miterlimit="10"/>
<path d="M1189.59 1.14404C1225.08 52.1013 1292.86 88.7893 1323.95 141.434C1355.57 194.936 1366.55 264.023 1383.58 321.328C1406.14 397.278 1430.35 472.227 1463.54 545.917" stroke="#DDD6FE" stroke-width="0.862212" stroke-miterlimit="10"/>
<path d="M1158.35 1.11475C1187.98 43.7507 1248.58 72.3176 1273.17 116.869C1303.96 172.345 1308.17 248.952 1321.55 308.46C1339.48 388.355 1358.69 467.565 1386.62 545.802" stroke="#DDD6FE" stroke-width="0.862212" stroke-miterlimit="10"/>
<path d="M1127.08 1.05737C1150.98 39.2038 1201.59 59.5924 1221.74 99.3688C1252.75 160.535 1251.02 244.606 1261.55 309.918C1274.33 389.099 1288.77 467.708 1309.71 545.888" stroke="#DDD6FE" stroke-width="0.862212" stroke-miterlimit="10"/>
<path d="M1095.83 1.0293C1113.95 33.1421 1154.97 46.7821 1170.61 80.3819C1199.93 143.292 1191.55 233.54 1198.73 300.567C1207.49 382.665 1217.53 464.448 1232.79 546.003" stroke="#DDD6FE" stroke-width="0.862212" stroke-miterlimit="10"/>
<path d="M1064.56 1.0293C1076.85 27.1084 1105.23 37.4886 1116.47 64.6257C1143.5 129.795 1129.86 223.903 1134.26 292.704C1139.71 377.232 1145.87 461.617 1155.87 545.888" stroke="#DDD6FE" stroke-width="0.862212" stroke-miterlimit="10"/>
<path d="M1033.28 1C1037.98 19.873 1052.9 34.657 1059.37 53.673C1082.68 122.302 1066.02 216.239 1068.2 287.556C1070.87 373.714 1073.84 459.815 1078.92 545.916" stroke="#DDD6FE" stroke-width="0.862212" stroke-miterlimit="10"/>
<path d="M1002 1.0293V545.946" stroke="#DDD6FE" stroke-width="0.862212" stroke-miterlimit="10"/>
<path d="M970.721 1C966.022 19.873 951.097 34.657 944.631 53.673C921.323 122.302 937.977 216.239 935.796 287.556C933.127 373.714 930.157 459.815 925.082 545.916" stroke="#DDD6FE" stroke-width="0.862212" stroke-miterlimit="10"/>
<path d="M939.444 1.0293C927.15 27.1084 898.767 37.4886 887.526 64.6257C860.496 129.795 874.143 223.903 869.744 292.704C864.293 377.232 858.128 461.617 848.128 545.888" stroke="#DDD6FE" stroke-width="0.862212" stroke-miterlimit="10"/>
<path d="M908.166 1.0293C890.046 33.1421 849.031 46.7821 833.391 80.3819C804.068 143.292 812.452 233.54 805.271 300.567C796.512 382.665 786.474 464.448 771.211 546.003" stroke="#DDD6FE" stroke-width="0.862212" stroke-miterlimit="10"/>
<path d="M876.925 1.05737C853.015 39.2038 802.413 59.5924 782.263 99.3688C751.248 160.535 752.977 244.606 742.451 309.918C729.669 389.099 715.233 467.708 694.293 545.888" stroke="#DDD6FE" stroke-width="0.862212" stroke-miterlimit="10"/>
<path d="M845.648 1.11475C816.024 43.7507 755.422 72.3176 730.836 116.869C700.046 172.345 695.836 248.952 682.452 308.46C664.52 388.355 645.309 467.565 617.377 545.802" stroke="#DDD6FE" stroke-width="0.862212" stroke-miterlimit="10"/>
<path d="M814.406 1.14404C778.918 52.1013 711.136 88.7893 680.045 141.434C648.429 194.936 637.451 264.023 620.421 321.328C597.865 397.278 573.654 472.227 540.459 545.917" stroke="#DDD6FE" stroke-width="0.862212" stroke-miterlimit="10"/>
<path d="M783.128 1.19897C739.895 60.0486 668.391 106.259 628.993 166.71C552.489 284.352 530.421 424.47 463.579 545.915" stroke="#DDD6FE" stroke-width="0.862212" stroke-miterlimit="10"/>
<path d="M752.001 1.22949C700.573 68.4004 626.137 124.533 577.753 192.991C498.806 304.657 461.738 432.25 386.738 545.946" stroke="#DDD6FE" stroke-width="0.862212" stroke-miterlimit="10"/>
<path d="M720.61 1.28564C657.979 74.3758 581.513 141.232 523.242 216.438C441.55 321.985 390.723 439.769 309.708 545.945" stroke="#DDD6FE" stroke-width="0.862212" stroke-miterlimit="10"/>
<path d="M689.331 1.31494C618.467 81.0965 537.076 155.731 468.692 236.685C383.918 337.055 319.256 446.204 232.79 545.945" stroke="#DDD6FE" stroke-width="0.862212" stroke-miterlimit="10"/>
<path d="M658.015 1.34302C578.766 86.1574 493.315 167.54 414.669 252.698C325.608 349.093 247.263 450.75 155.834 545.945" stroke="#DDD6FE" stroke-width="0.862212" stroke-miterlimit="10"/>
<path d="M626.812 1.34302C445.308 183.211 264.97 366.708 79.0674 545.916" stroke="#DDD6FE" stroke-width="0.862212" stroke-miterlimit="10"/>
</svg>
