<svg width="1000" height="1000" viewBox="0 0 1000 1000" fill="none" xmlns="http://www.w3.org/2000/svg">
<g clip-path="url(#clip0_55_2)">
<rect width="1000" height="1000" fill="white"/>
<g style="mix-blend-mode:darken" opacity="0.2" filter="url(#filter0_d_55_2)">
<rect x="325" y="267" width="350" height="466.667" rx="116.667" fill="url(#paint0_radial_55_2)"/>
<g style="mix-blend-mode:color-burn">
<g style="mix-blend-mode:multiply">
<path fill-rule="evenodd" clip-rule="evenodd" d="M458 375.5C458 431.051 443.743 481.456 419.899 517.827C396.066 554.181 362.951 576.167 325 576.167V580.833V585.5V608.833H462.667V608.834H490.667V608.833L509.334 608.833V608.834H537.334V608.833H675V585.5V580.833V576.167C637.049 576.167 603.934 554.181 580.101 517.827C556.257 481.456 542 431.051 542 375.5H532.667L509.334 375.5V554V554.389V580.833L490.667 580.833V554L490.667 375.5H467.333H462.667H458ZM462.667 580.833V554.389V430.313C456.498 465.635 444.423 497.442 427.705 522.944C409.124 551.286 384.645 572.031 356.088 580.833H462.667ZM537.334 580.833H643.912C615.355 572.031 590.876 551.286 572.295 522.944C555.577 497.443 543.503 465.637 537.334 430.315V554V554.389V580.833ZM462.667 732.889L462.667 636.834H490.667V732.889H462.667ZM509.334 732.889V636.834H537.334V732.889H509.334Z" fill="url(#paint1_linear_55_2)"/>
</g>
</g>
<g style="mix-blend-mode:color-burn">
<mask id="path-3-outside-1_55_2" maskUnits="userSpaceOnUse" x="324" y="374.5" width="352" height="360" fill="black">
<rect fill="white" x="324" y="374.5" width="352" height="360"/>
<path fill-rule="evenodd" clip-rule="evenodd" d="M458 375.5C458 431.051 443.743 481.456 419.899 517.827C396.066 554.181 362.951 576.167 325 576.167V580.833V585.5V608.833H462.667V608.834H490.667V608.833L509.334 608.833V608.834H537.334V608.833H675V585.5V580.833V576.167C637.049 576.167 603.934 554.181 580.101 517.827C556.257 481.456 542 431.051 542 375.5H532.667L509.334 375.5V554V554.389V580.833L490.667 580.833V554L490.667 375.5H467.333H462.667H458ZM462.667 580.833V554.389V430.313C456.498 465.635 444.423 497.442 427.705 522.944C409.124 551.286 384.645 572.031 356.088 580.833H462.667ZM537.334 580.833H643.912C615.355 572.031 590.876 551.286 572.295 522.944C555.577 497.443 543.503 465.637 537.334 430.315V554V554.389V580.833ZM462.667 732.889L462.667 636.834H490.667V732.889H462.667ZM509.334 732.889V636.834H537.334V732.889H509.334Z"/>
</mask>
<path fill-rule="evenodd" clip-rule="evenodd" d="M458 375.5C458 431.051 443.743 481.456 419.899 517.827C396.066 554.181 362.951 576.167 325 576.167V580.833V585.5V608.833H462.667V608.834H490.667V608.833L509.334 608.833V608.834H537.334V608.833H675V585.5V580.833V576.167C637.049 576.167 603.934 554.181 580.101 517.827C556.257 481.456 542 431.051 542 375.5H532.667L509.334 375.5V554V554.389V580.833L490.667 580.833V554L490.667 375.5H467.333H462.667H458ZM462.667 580.833V554.389V430.313C456.498 465.635 444.423 497.442 427.705 522.944C409.124 551.286 384.645 572.031 356.088 580.833H462.667ZM537.334 580.833H643.912C615.355 572.031 590.876 551.286 572.295 522.944C555.577 497.443 543.503 465.637 537.334 430.315V554V554.389V580.833ZM462.667 732.889L462.667 636.834H490.667V732.889H462.667ZM509.334 732.889V636.834H537.334V732.889H509.334Z" fill="white"/>
<path d="M419.899 517.827L419.063 517.279L419.063 517.279L419.899 517.827ZM458 375.5V374.5H457V375.5H458ZM325 576.167V575.167H324V576.167H325ZM325 608.833H324V609.833H325V608.833ZM462.667 608.833H463.667V607.833H462.667V608.833ZM462.667 608.834H461.667V609.834H462.667V608.834ZM490.667 608.834V609.834H491.667V608.834H490.667ZM490.667 608.833L490.667 607.833L489.667 607.833V608.833H490.667ZM509.334 608.833H510.334V607.833L509.334 607.833L509.334 608.833ZM509.334 608.834H508.334V609.834H509.334V608.834ZM537.334 608.834V609.834H538.334V608.834H537.334ZM537.334 608.833V607.833H536.334V608.833H537.334ZM675 608.833V609.833H676V608.833H675ZM675 576.167H676V575.167H675V576.167ZM580.101 517.827L580.937 517.279L580.937 517.279L580.101 517.827ZM542 375.5H543V374.5H542V375.5ZM532.667 375.5L532.667 374.5L532.667 374.5L532.667 375.5ZM509.334 375.5L509.334 374.5L508.334 374.5V375.5H509.334ZM509.334 580.833L509.334 581.833L510.334 581.833V580.833H509.334ZM490.667 580.833H489.667V581.833L490.667 581.833L490.667 580.833ZM490.667 554L491.667 554L491.667 554L490.667 554ZM490.667 375.5L491.667 375.5L491.667 374.5H490.667V375.5ZM462.667 580.833V581.833H463.667V580.833H462.667ZM462.667 430.313H463.667L461.682 430.141L462.667 430.313ZM427.705 522.944L426.869 522.396L426.869 522.396L427.705 522.944ZM356.088 580.833L355.794 579.878L356.088 581.833V580.833ZM537.334 580.833H536.334V581.833H537.334V580.833ZM643.912 580.833V581.833L644.206 579.878L643.912 580.833ZM572.295 522.944L573.131 522.396L573.131 522.396L572.295 522.944ZM537.334 430.315L538.319 430.143L536.334 430.315H537.334ZM462.667 636.834V635.834H461.667L461.667 636.834L462.667 636.834ZM462.667 732.889L461.667 732.889L461.667 733.889H462.667V732.889ZM490.667 636.834H491.667V635.834H490.667V636.834ZM490.667 732.889V733.889H491.667V732.889H490.667ZM509.334 636.834V635.834H508.334V636.834H509.334ZM509.334 732.889H508.334V733.889H509.334V732.889ZM537.334 636.834H538.334V635.834H537.334V636.834ZM537.334 732.889V733.889H538.334V732.889H537.334ZM420.736 518.375C444.704 481.814 459 431.21 459 375.5H457C457 430.892 442.782 481.099 419.063 517.279L420.736 518.375ZM325 577.167C363.381 577.167 396.775 554.924 420.736 518.375L419.063 517.279C395.357 553.439 362.522 575.167 325 575.167V577.167ZM326 580.833V576.167H324V580.833H326ZM326 585.5V580.833H324V585.5H326ZM326 608.833V585.5H324V608.833H326ZM462.667 607.833H325V609.833H462.667V607.833ZM463.667 608.834V608.833H461.667V608.834H463.667ZM490.667 607.834H462.667V609.834H490.667V607.834ZM489.667 608.833V608.834H491.667V608.833H489.667ZM509.334 607.833L490.667 607.833L490.667 609.833L509.334 609.833L509.334 607.833ZM508.334 608.833V608.834H510.334V608.833H508.334ZM509.334 609.834H537.334V607.834H509.334V609.834ZM538.334 608.834V608.833H536.334V608.834H538.334ZM675 607.833H537.334V609.833H675V607.833ZM674 585.5V608.833H676V585.5H674ZM674 580.833V585.5H676V580.833H674ZM676 580.833V576.167H674V580.833H676ZM675 575.167C637.478 575.167 604.643 553.439 580.937 517.279L579.264 518.375C603.225 554.924 636.619 577.167 675 577.167V575.167ZM580.937 517.279C557.218 481.099 543 430.892 543 375.5H541C541 431.21 555.296 481.814 579.264 518.375L580.937 517.279ZM542 374.5H532.667V376.5H542V374.5ZM532.667 374.5L509.334 374.5L509.334 376.5L532.667 376.5L532.667 374.5ZM508.334 375.5V554H510.334V375.5H508.334ZM508.334 554V554.389H510.334V554H508.334ZM508.334 554.389V580.833H510.334V554.389H508.334ZM490.667 581.833L509.334 581.833L509.334 579.833L490.667 579.833L490.667 581.833ZM489.667 554V580.833H491.667V554H489.667ZM489.667 375.5L489.667 554L491.667 554L491.667 375.5L489.667 375.5ZM467.333 376.5H490.667V374.5H467.333V376.5ZM462.667 376.5H467.333V374.5H462.667V376.5ZM458 376.5H462.667V374.5H458V376.5ZM463.667 580.833V554.389H461.667V580.833H463.667ZM463.667 554.389V430.313H461.667V554.389H463.667ZM461.682 430.141C455.532 465.35 443.501 497.025 426.869 522.396L428.541 523.492C445.345 497.86 457.463 465.921 463.652 430.485L461.682 430.141ZM426.869 522.396C408.382 550.595 384.075 571.161 355.794 579.878L356.383 581.789C385.214 572.902 409.867 551.978 428.541 523.492L426.869 522.396ZM356.088 581.833H462.667V579.833H356.088V581.833ZM537.334 581.833H643.912V579.833H537.334V581.833ZM571.459 523.492C590.133 551.978 614.786 572.902 643.617 581.789L644.206 579.878C615.925 571.161 591.618 550.595 573.131 522.396L571.459 523.492ZM536.349 430.488C542.537 465.922 554.655 497.861 571.459 523.492L573.131 522.396C556.499 497.025 544.468 465.352 538.319 430.143L536.349 430.488ZM538.334 554V430.315H536.334V554H538.334ZM538.334 554.389V554H536.334V554.389H538.334ZM538.334 580.833V554.389H536.334V580.833H538.334ZM461.667 636.834L461.667 732.889L463.667 732.889L463.667 636.834L461.667 636.834ZM490.667 635.834H462.667V637.834H490.667V635.834ZM491.667 732.889V636.834H489.667V732.889H491.667ZM462.667 733.889H490.667V731.889H462.667V733.889ZM508.334 636.834V732.889H510.334V636.834H508.334ZM537.334 635.834H509.334V637.834H537.334V635.834ZM538.334 732.889V636.834H536.334V732.889H538.334ZM509.334 733.889H537.334V731.889H509.334V733.889Z" fill="url(#paint2_linear_55_2)" mask="url(#path-3-outside-1_55_2)"/>
</g>
</g>
<g style="mix-blend-mode:color-dodge" opacity="0.5">
<mask id="path-5-outside-2_55_2" maskUnits="userSpaceOnUse" x="324" y="374.5" width="352" height="360" fill="black">
<rect fill="white" x="324" y="374.5" width="352" height="360"/>
<path fill-rule="evenodd" clip-rule="evenodd" d="M458 375.5C458 431.051 443.743 481.456 419.899 517.827C396.066 554.181 362.951 576.167 325 576.167V580.833V585.5V608.833H462.667V608.834H490.667V608.833L509.334 608.833V608.834H537.334V608.833H675V585.5V580.833V576.167C637.049 576.167 603.934 554.181 580.101 517.827C556.257 481.456 542 431.051 542 375.5H532.667L509.334 375.5V554V554.389V580.833L490.667 580.833V554L490.667 375.5H467.333H462.667H458ZM462.667 580.833V554.389V430.313C456.498 465.635 444.423 497.442 427.705 522.944C409.124 551.286 384.645 572.031 356.088 580.833H462.667ZM537.334 580.833H643.912C615.355 572.031 590.876 551.286 572.295 522.944C555.577 497.443 543.503 465.637 537.334 430.315V554V554.389V580.833ZM462.667 732.889L462.667 636.834H490.667V732.889H462.667ZM509.334 732.889V636.834H537.334V732.889H509.334Z"/>
</mask>
<path fill-rule="evenodd" clip-rule="evenodd" d="M458 375.5C458 431.051 443.743 481.456 419.899 517.827C396.066 554.181 362.951 576.167 325 576.167V580.833V585.5V608.833H462.667V608.834H490.667V608.833L509.334 608.833V608.834H537.334V608.833H675V585.5V580.833V576.167C637.049 576.167 603.934 554.181 580.101 517.827C556.257 481.456 542 431.051 542 375.5H532.667L509.334 375.5V554V554.389V580.833L490.667 580.833V554L490.667 375.5H467.333H462.667H458ZM462.667 580.833V554.389V430.313C456.498 465.635 444.423 497.442 427.705 522.944C409.124 551.286 384.645 572.031 356.088 580.833H462.667ZM537.334 580.833H643.912C615.355 572.031 590.876 551.286 572.295 522.944C555.577 497.443 543.503 465.637 537.334 430.315V554V554.389V580.833ZM462.667 732.889L462.667 636.834H490.667V732.889H462.667ZM509.334 732.889V636.834H537.334V732.889H509.334Z" fill="white" style="mix-blend-mode:overlay"/>
<path d="M419.899 517.827L419.063 517.279L419.063 517.279L419.899 517.827ZM458 375.5V374.5H457V375.5H458ZM325 576.167V575.167H324V576.167H325ZM325 608.833H324V609.833H325V608.833ZM462.667 608.833H463.667V607.833H462.667V608.833ZM462.667 608.834H461.667V609.834H462.667V608.834ZM490.667 608.834V609.834H491.667V608.834H490.667ZM490.667 608.833L490.667 607.833L489.667 607.833V608.833H490.667ZM509.334 608.833H510.334V607.833L509.334 607.833L509.334 608.833ZM509.334 608.834H508.334V609.834H509.334V608.834ZM537.334 608.834V609.834H538.334V608.834H537.334ZM537.334 608.833V607.833H536.334V608.833H537.334ZM675 608.833V609.833H676V608.833H675ZM675 576.167H676V575.167H675V576.167ZM580.101 517.827L580.937 517.279L580.937 517.279L580.101 517.827ZM542 375.5H543V374.5H542V375.5ZM532.667 375.5L532.667 374.5L532.667 374.5L532.667 375.5ZM509.334 375.5L509.334 374.5L508.334 374.5V375.5H509.334ZM509.334 580.833L509.334 581.833L510.334 581.833V580.833H509.334ZM490.667 580.833H489.667V581.833L490.667 581.833L490.667 580.833ZM490.667 554L491.667 554L491.667 554L490.667 554ZM490.667 375.5L491.667 375.5L491.667 374.5H490.667V375.5ZM462.667 580.833V581.833H463.667V580.833H462.667ZM462.667 430.313H463.667L461.682 430.141L462.667 430.313ZM427.705 522.944L426.869 522.396L426.869 522.396L427.705 522.944ZM356.088 580.833L355.794 579.878L356.088 581.833V580.833ZM537.334 580.833H536.334V581.833H537.334V580.833ZM643.912 580.833V581.833L644.206 579.878L643.912 580.833ZM572.295 522.944L573.131 522.396L573.131 522.396L572.295 522.944ZM537.334 430.315L538.319 430.143L536.334 430.315H537.334ZM462.667 636.834V635.834H461.667L461.667 636.834L462.667 636.834ZM462.667 732.889L461.667 732.889L461.667 733.889H462.667V732.889ZM490.667 636.834H491.667V635.834H490.667V636.834ZM490.667 732.889V733.889H491.667V732.889H490.667ZM509.334 636.834V635.834H508.334V636.834H509.334ZM509.334 732.889H508.334V733.889H509.334V732.889ZM537.334 636.834H538.334V635.834H537.334V636.834ZM537.334 732.889V733.889H538.334V732.889H537.334ZM420.736 518.375C444.704 481.814 459 431.21 459 375.5H457C457 430.892 442.782 481.099 419.063 517.279L420.736 518.375ZM325 577.167C363.381 577.167 396.775 554.924 420.736 518.375L419.063 517.279C395.357 553.439 362.522 575.167 325 575.167V577.167ZM326 580.833V576.167H324V580.833H326ZM326 585.5V580.833H324V585.5H326ZM326 608.833V585.5H324V608.833H326ZM462.667 607.833H325V609.833H462.667V607.833ZM463.667 608.834V608.833H461.667V608.834H463.667ZM490.667 607.834H462.667V609.834H490.667V607.834ZM489.667 608.833V608.834H491.667V608.833H489.667ZM509.334 607.833L490.667 607.833L490.667 609.833L509.334 609.833L509.334 607.833ZM508.334 608.833V608.834H510.334V608.833H508.334ZM509.334 609.834H537.334V607.834H509.334V609.834ZM538.334 608.834V608.833H536.334V608.834H538.334ZM675 607.833H537.334V609.833H675V607.833ZM674 585.5V608.833H676V585.5H674ZM674 580.833V585.5H676V580.833H674ZM676 580.833V576.167H674V580.833H676ZM675 575.167C637.478 575.167 604.643 553.439 580.937 517.279L579.264 518.375C603.225 554.924 636.619 577.167 675 577.167V575.167ZM580.937 517.279C557.218 481.099 543 430.892 543 375.5H541C541 431.21 555.296 481.814 579.264 518.375L580.937 517.279ZM542 374.5H532.667V376.5H542V374.5ZM532.667 374.5L509.334 374.5L509.334 376.5L532.667 376.5L532.667 374.5ZM508.334 375.5V554H510.334V375.5H508.334ZM508.334 554V554.389H510.334V554H508.334ZM508.334 554.389V580.833H510.334V554.389H508.334ZM490.667 581.833L509.334 581.833L509.334 579.833L490.667 579.833L490.667 581.833ZM489.667 554V580.833H491.667V554H489.667ZM489.667 375.5L489.667 554L491.667 554L491.667 375.5L489.667 375.5ZM467.333 376.5H490.667V374.5H467.333V376.5ZM462.667 376.5H467.333V374.5H462.667V376.5ZM458 376.5H462.667V374.5H458V376.5ZM463.667 580.833V554.389H461.667V580.833H463.667ZM463.667 554.389V430.313H461.667V554.389H463.667ZM461.682 430.141C455.532 465.35 443.501 497.025 426.869 522.396L428.541 523.492C445.345 497.86 457.463 465.921 463.652 430.485L461.682 430.141ZM426.869 522.396C408.382 550.595 384.075 571.161 355.794 579.878L356.383 581.789C385.214 572.902 409.867 551.978 428.541 523.492L426.869 522.396ZM356.088 581.833H462.667V579.833H356.088V581.833ZM537.334 581.833H643.912V579.833H537.334V581.833ZM571.459 523.492C590.133 551.978 614.786 572.902 643.617 581.789L644.206 579.878C615.925 571.161 591.618 550.595 573.131 522.396L571.459 523.492ZM536.349 430.488C542.537 465.922 554.655 497.861 571.459 523.492L573.131 522.396C556.499 497.025 544.468 465.352 538.319 430.143L536.349 430.488ZM538.334 554V430.315H536.334V554H538.334ZM538.334 554.389V554H536.334V554.389H538.334ZM538.334 580.833V554.389H536.334V580.833H538.334ZM461.667 636.834L461.667 732.889L463.667 732.889L463.667 636.834L461.667 636.834ZM490.667 635.834H462.667V637.834H490.667V635.834ZM491.667 732.889V636.834H489.667V732.889H491.667ZM462.667 733.889H490.667V731.889H462.667V733.889ZM508.334 636.834V732.889H510.334V636.834H508.334ZM537.334 635.834H509.334V637.834H537.334V635.834ZM538.334 732.889V636.834H536.334V732.889H538.334ZM509.334 733.889H537.334V731.889H509.334V733.889Z" fill="url(#paint3_linear_55_2)" mask="url(#path-5-outside-2_55_2)"/>
</g>
<g opacity="0.7">
<g style="mix-blend-mode:hard-light" filter="url(#filter1_f_55_2)">
<path d="M675 307L23 961L71.5 1108L675 307Z" fill="#BD23D6"/>
</g>
<g style="mix-blend-mode:overlay" filter="url(#filter2_f_55_2)">
<path d="M602 468L-50 1122L-1.5 1269L602 468Z" fill="white" fill-opacity="0.7"/>
</g>
<g style="mix-blend-mode:overlay" filter="url(#filter3_f_55_2)">
<path d="M667 355L15 1009L63.5 1156L667 355Z" fill="#EE5757"/>
</g>
<g style="mix-blend-mode:hard-light" filter="url(#filter4_f_55_2)">
<path d="M687 -41L-193 841.614L-127.54 1040L687 -41Z" fill="#5C23D6"/>
</g>
<g style="mix-blend-mode:hard-light" filter="url(#filter5_f_55_2)">
<path d="M650 721L1302 67L1253.5 -80L650 721Z" fill="#BD23D6"/>
</g>
<g style="mix-blend-mode:hard-light" filter="url(#filter6_f_55_2)">
<path d="M384 849L1518 -288.356L1433.65 -544L384 849Z" fill="#8219B4"/>
</g>
</g>
<g style="mix-blend-mode:hard-light">
<rect x="324.5" y="266.5" width="351" height="467.667" rx="117.167" stroke="url(#paint4_linear_55_2)" stroke-opacity="0.5"/>
</g>
<g style="mix-blend-mode:hard-light">
<rect x="324.5" y="266.5" width="351" height="467.667" rx="117.167" stroke="url(#paint5_linear_55_2)" stroke-opacity="0.5"/>
</g>
<g style="mix-blend-mode:hue" filter="url(#filter7_b_55_2)">
<path d="M1028 44L-17 1012V1080.5L1057.5 1046L1028 44Z" fill="url(#paint6_radial_55_2)"/>
</g>
<g style="mix-blend-mode:hard-light" opacity="0.3" filter="url(#filter8_f_55_2)">
<path d="M433 539C729.941 347.164 942.725 82.5488 1012 -25.7795L853.78 -137C727.204 -39.8201 520.52 354.158 433 539Z" fill="#3D2DFF"/>
</g>
<g style="mix-blend-mode:soft-light" filter="url(#filter9_f_55_2)">
<path d="M602 430.5L1026.5 -28L1175.5 76L602 430.5Z" fill="white" fill-opacity="0.5"/>
</g>
</g>
<defs>
<filter id="filter0_d_55_2" x="164" y="119" width="672" height="786.889" filterUnits="userSpaceOnUse" color-interpolation-filters="sRGB">
<feFlood flood-opacity="0" result="BackgroundImageFix"/>
<feColorMatrix in="SourceAlpha" type="matrix" values="0 0 0 0 0 0 0 0 0 0 0 0 0 0 0 0 0 0 127 0" result="hardAlpha"/>
<feOffset dy="12"/>
<feGaussianBlur stdDeviation="80"/>
<feComposite in2="hardAlpha" operator="out"/>
<feColorMatrix type="matrix" values="0 0 0 0 0 0 0 0 0 0 0 0 0 0 0 0 0 0 1 0"/>
<feBlend mode="normal" in2="BackgroundImageFix" result="effect1_dropShadow_55_2"/>
<feBlend mode="normal" in="SourceGraphic" in2="effect1_dropShadow_55_2" result="shape"/>
</filter>
<filter id="filter1_f_55_2" x="-177" y="107" width="1052" height="1201" filterUnits="userSpaceOnUse" color-interpolation-filters="sRGB">
<feFlood flood-opacity="0" result="BackgroundImageFix"/>
<feBlend mode="normal" in="SourceGraphic" in2="BackgroundImageFix" result="shape"/>
<feGaussianBlur stdDeviation="100" result="effect1_foregroundBlur_55_2"/>
</filter>
<filter id="filter2_f_55_2" x="-122" y="396" width="796" height="945" filterUnits="userSpaceOnUse" color-interpolation-filters="sRGB">
<feFlood flood-opacity="0" result="BackgroundImageFix"/>
<feBlend mode="normal" in="SourceGraphic" in2="BackgroundImageFix" result="shape"/>
<feGaussianBlur stdDeviation="36" result="effect1_foregroundBlur_55_2"/>
</filter>
<filter id="filter3_f_55_2" x="-81" y="259" width="844" height="993" filterUnits="userSpaceOnUse" color-interpolation-filters="sRGB">
<feFlood flood-opacity="0" result="BackgroundImageFix"/>
<feBlend mode="normal" in="SourceGraphic" in2="BackgroundImageFix" result="shape"/>
<feGaussianBlur stdDeviation="48" result="effect1_foregroundBlur_55_2"/>
</filter>
<filter id="filter4_f_55_2" x="-449" y="-297" width="1392" height="1593" filterUnits="userSpaceOnUse" color-interpolation-filters="sRGB">
<feFlood flood-opacity="0" result="BackgroundImageFix"/>
<feBlend mode="normal" in="SourceGraphic" in2="BackgroundImageFix" result="shape"/>
<feGaussianBlur stdDeviation="128" result="effect1_foregroundBlur_55_2"/>
</filter>
<filter id="filter5_f_55_2" x="498" y="-232" width="956" height="1105" filterUnits="userSpaceOnUse" color-interpolation-filters="sRGB">
<feFlood flood-opacity="0" result="BackgroundImageFix"/>
<feBlend mode="normal" in="SourceGraphic" in2="BackgroundImageFix" result="shape"/>
<feGaussianBlur stdDeviation="76" result="effect1_foregroundBlur_55_2"/>
</filter>
<filter id="filter6_f_55_2" x="128" y="-800" width="1646" height="1905" filterUnits="userSpaceOnUse" color-interpolation-filters="sRGB">
<feFlood flood-opacity="0" result="BackgroundImageFix"/>
<feBlend mode="normal" in="SourceGraphic" in2="BackgroundImageFix" result="shape"/>
<feGaussianBlur stdDeviation="128" result="effect1_foregroundBlur_55_2"/>
</filter>
<filter id="filter7_b_55_2" x="-273" y="-212" width="1586.5" height="1548.5" filterUnits="userSpaceOnUse" color-interpolation-filters="sRGB">
<feFlood flood-opacity="0" result="BackgroundImageFix"/>
<feGaussianBlur in="BackgroundImageFix" stdDeviation="128"/>
<feComposite in2="SourceAlpha" operator="in" result="effect1_backgroundBlur_55_2"/>
<feBlend mode="normal" in="SourceGraphic" in2="effect1_backgroundBlur_55_2" result="shape"/>
</filter>
<filter id="filter8_f_55_2" x="305" y="-265" width="835" height="932" filterUnits="userSpaceOnUse" color-interpolation-filters="sRGB">
<feFlood flood-opacity="0" result="BackgroundImageFix"/>
<feBlend mode="normal" in="SourceGraphic" in2="BackgroundImageFix" result="shape"/>
<feGaussianBlur stdDeviation="64" result="effect1_foregroundBlur_55_2"/>
</filter>
<filter id="filter9_f_55_2" x="522" y="-108" width="733.5" height="618.5" filterUnits="userSpaceOnUse" color-interpolation-filters="sRGB">
<feFlood flood-opacity="0" result="BackgroundImageFix"/>
<feBlend mode="normal" in="SourceGraphic" in2="BackgroundImageFix" result="shape"/>
<feGaussianBlur stdDeviation="40" result="effect1_foregroundBlur_55_2"/>
</filter>
<radialGradient id="paint0_radial_55_2" cx="0" cy="0" r="1" gradientUnits="userSpaceOnUse" gradientTransform="translate(623.083 312.5) rotate(106.291) scale(438.783 329.088)">
<stop stop-color="#BD23D6"/>
<stop offset="1" stop-color="#7321DC"/>
</radialGradient>
<linearGradient id="paint1_linear_55_2" x1="603.833" y1="375.5" x2="603.833" y2="585.5" gradientUnits="userSpaceOnUse">
<stop stop-color="#7321DC"/>
<stop offset="0.432292" stop-color="#7321DC" stop-opacity="0"/>
<stop offset="1" stop-color="#5C23D6"/>
</linearGradient>
<linearGradient id="paint2_linear_55_2" x1="603.833" y1="375.5" x2="603.833" y2="585.5" gradientUnits="userSpaceOnUse">
<stop stop-color="#BD23D6"/>
<stop offset="1" stop-color="white"/>
</linearGradient>
<linearGradient id="paint3_linear_55_2" x1="603.833" y1="375.5" x2="603.833" y2="585.5" gradientUnits="userSpaceOnUse">
<stop stop-color="#EC77FF"/>
<stop offset="1" stop-color="#FF4AD7"/>
</linearGradient>
<linearGradient id="paint4_linear_55_2" x1="338.5" y1="249" x2="695" y2="838" gradientUnits="userSpaceOnUse">
<stop stop-color="#7321DC" stop-opacity="0.2"/>
<stop offset="0.296875" stop-color="#BD23D6"/>
<stop offset="0.635417" stop-color="#7000FF" stop-opacity="0.2"/>
<stop offset="1" stop-color="#7000FF"/>
</linearGradient>
<linearGradient id="paint5_linear_55_2" x1="338.5" y1="249" x2="695" y2="838" gradientUnits="userSpaceOnUse">
<stop stop-color="#7321DC" stop-opacity="0.5"/>
<stop offset="0.296875" stop-color="#BD23D6" stop-opacity="0.1"/>
<stop offset="0.635417" stop-color="#7000FF" stop-opacity="0.2"/>
<stop offset="1" stop-color="#7000FF"/>
</linearGradient>
<radialGradient id="paint6_radial_55_2" cx="0" cy="0" r="1" gradientUnits="userSpaceOnUse" gradientTransform="translate(227.5 611.5) rotate(-30.566) scale(592.885 614.621)">
<stop stop-color="#FB3CFF" stop-opacity="0.1"/>
<stop offset="1" stop-color="#FC52FF" stop-opacity="0"/>
</radialGradient>
<clipPath id="clip0_55_2">
<rect width="1000" height="1000" fill="white"/>
</clipPath>
</defs>
</svg>
